<?xml version="1.0" standalone="no"?>
<!DOCTYPE svg PUBLIC "-//W3C//DTD SVG 20010904//EN"
 "http://www.w3.org/TR/2001/REC-SVG-20010904/DTD/svg10.dtd">
<svg version="1.0" xmlns="http://www.w3.org/2000/svg"
 width="512.000000pt" height="512.000000pt" viewBox="0 0 512.000000 512.000000"
 preserveAspectRatio="xMidYMid meet">

<g transform="translate(0.000000,512.000000) scale(0.100000,-0.100000)"
fill="#000000" stroke="none">
<path d="M4284 5013 c-42 -8 -71 -58 -135 -227 -35 -92 -68 -170 -74 -171 -5
-2 -95 -7 -198 -12 l-189 -8 -29 -33 c-36 -40 -39 -96 -9 -135 11 -14 81 -74
155 -133 74 -59 135 -112 135 -116 0 -5 -20 -85 -45 -177 -49 -184 -53 -215
-29 -250 22 -31 77 -53 111 -45 15 4 92 50 172 102 79 51 150 96 156 98 7 3
83 -41 170 -98 135 -88 164 -102 197 -102 45 2 94 41 103 83 3 16 -15 100 -45
210 -27 102 -49 185 -47 186 1 1 68 55 149 119 124 99 150 124 159 156 9 31 8
43 -6 73 -27 57 -57 65 -262 73 -153 6 -183 10 -188 23 -4 9 -31 81 -61 160
-64 168 -78 197 -102 209 -24 13 -63 19 -88 15z m91 -415 c54 -137 59 -140
224 -147 71 -3 132 -8 134 -11 3 -3 -41 -42 -98 -88 -61 -49 -108 -95 -115
-113 -11 -26 -8 -46 23 -164 19 -74 33 -135 31 -135 -2 0 -55 33 -116 72 -145
94 -149 94 -293 0 -60 -39 -111 -68 -113 -63 -2 5 11 57 28 117 48 175 48 176
-101 295 -62 50 -87 74 -77 79 7 4 67 10 134 12 158 6 161 9 215 146 22 59 46
118 51 132 l11 25 11 -28 c6 -16 28 -74 51 -129z"/>
<path d="M842 4099 c-78 -39 -122 -113 -122 -206 l0 -42 -219 -3 c-203 -3
-222 -5 -247 -24 -66 -49 -69 -59 -72 -254 -4 -205 6 -270 49 -329 l29 -41 0
-281 c0 -194 4 -295 12 -323 17 -56 82 -119 138 -134 34 -10 217 -12 756 -10
l711 3 48 30 c35 21 56 45 74 80 26 49 26 52 31 351 4 267 7 304 22 321 42 46
48 84 48 298 0 228 -4 245 -62 287 -32 22 -41 23 -249 26 l-216 3 -7 61 c-10
96 -54 158 -140 195 -20 9 -101 13 -285 13 -240 0 -259 -1 -299 -21z m552
-161 c9 -12 16 -37 16 -55 l0 -33 -265 0 -265 0 0 37 c0 72 4 73 266 73 229 0
233 0 248 -22z m-792 -341 c4 -109 26 -156 89 -188 38 -19 56 -20 463 -17 411
3 425 4 452 24 58 43 69 68 74 172 l5 97 128 3 127 3 0 -170 c0 -167 0 -170
-25 -200 -54 -63 -199 -111 -418 -137 l-128 -15 -45 50 c-53 58 -107 83 -186
82 -73 0 -147 -38 -186 -93 l-27 -38 -65 6 c-251 23 -416 72 -485 144 l-30 31
-3 156 c-2 85 -1 161 2 169 4 11 32 14 129 14 l125 0 4 -93z m918 23 l0 -70
-380 0 -380 0 0 63 c0 35 3 67 7 70 3 4 174 7 380 7 l373 0 0 -70z m-320 -500
c31 -31 27 -93 -6 -119 -37 -29 -70 -26 -105 8 -36 36 -37 73 -4 106 31 32 86
34 115 5z m-677 -50 c64 -18 209 -42 328 -55 52 -6 56 -8 68 -41 17 -47 65
-101 113 -125 121 -62 269 -13 328 109 24 48 27 52 70 57 199 25 349 54 413
80 16 7 17 -8 17 -229 0 -222 -1 -236 -19 -246 -13 -6 -251 -10 -702 -10 -621
0 -684 1 -701 17 -16 15 -18 36 -18 246 0 214 1 229 18 222 9 -3 47 -15 85
-25z"/>
<path d="M3371 3859 c-118 -7 -136 -11 -157 -30 -30 -28 -32 -77 -5 -110 18
-22 26 -24 105 -22 47 1 86 0 86 -1 0 -9 -170 -133 -285 -208 -248 -163 -538
-304 -805 -393 -90 -30 -140 -67 -140 -105 0 -27 52 -80 79 -80 11 0 73 19
138 41 363 128 732 324 1018 544 115 88 107 86 99 17 -9 -84 -1 -110 41 -128
37 -15 71 -8 94 20 11 13 71 348 71 399 0 10 -11 29 -25 42 -27 28 -57 29
-314 14z"/>
<path d="M3983 3570 c-12 -5 -26 -18 -32 -29 -8 -14 -11 -479 -11 -1525 l0
-1506 -195 0 -195 0 0 1210 c0 1185 0 1210 -19 1229 -11 11 -35 23 -53 26 -18
3 -178 5 -355 3 -320 -3 -323 -3 -345 -26 l-23 -23 -3 -1209 -2 -1210 -190 0
-190 0 -2 875 -3 874 -23 23 c-22 23 -25 23 -345 26 -177 2 -337 0 -355 -3
-17 -3 -41 -16 -52 -27 -20 -21 -20 -36 -20 -895 l0 -873 -195 0 -195 0 0 549
c0 540 0 549 -21 575 l-20 26 -354 0 c-332 0 -354 -1 -376 -19 l-24 -19 -3
-555 -2 -555 -131 -4 c-129 -3 -131 -3 -155 -31 -23 -27 -24 -34 -24 -172 0
-138 1 -145 24 -172 l24 -28 2442 0 2442 0 24 28 c23 27 24 34 24 172 0 138
-1 145 -24 172 -24 28 -26 28 -155 31 l-131 4 0 1505 0 1505 -29 29 -29 29
-339 -1 c-186 0 -348 -4 -360 -9z m597 -1605 l0 -1455 -240 0 -240 0 0 1455 0
1455 240 0 240 0 0 -1455z m-1190 -300 l0 -1155 -240 0 -240 0 0 1148 c0 632
3 1152 7 1155 3 4 111 7 240 7 l233 0 0 -1155z m-1182 -337 l2 -818 -240 0
-240 0 0 820 0 820 238 -2 237 -3 3 -817z m-1188 -323 l0 -495 -240 0 -240 0
0 495 0 495 240 0 240 0 0 -495z m3870 -695 l0 -40 -2330 0 -2330 0 0 40 0 40
2330 0 2330 0 0 -40z"/>
</g>
</svg>
