<?xml version="1.0" standalone="no"?>
<!DOCTYPE svg PUBLIC "-//W3C//DTD SVG 20010904//EN"
 "http://www.w3.org/TR/2001/REC-SVG-20010904/DTD/svg10.dtd">
<svg version="1.0" xmlns="http://www.w3.org/2000/svg"
 width="512.000000pt" height="512.000000pt" viewBox="0 0 512.000000 512.000000"
 preserveAspectRatio="xMidYMid meet">

<g transform="translate(0.000000,512.000000) scale(0.100000,-0.100000)"
fill="#000000" stroke="none">
<path d="M2510 4748 c-18 -19 -20 -35 -20 -143 0 -144 9 -165 70 -165 60 0 70
22 70 158 0 108 -8 147 -34 164 -22 15 -66 8 -86 -14z"/>
<path d="M1420 4460 c-32 -32 -24 -68 38 -175 65 -112 91 -132 140 -104 46 25
41 64 -23 176 -31 54 -64 104 -73 111 -24 18 -59 15 -82 -8z"/>
<path d="M3618 4468 c-9 -7 -42 -57 -73 -111 -64 -112 -69 -151 -23 -176 49
-28 75 -8 140 104 32 56 58 112 58 128 0 52 -62 85 -102 55z"/>
<path d="M2205 4023 c-89 -47 -115 -99 -115 -237 l0 -104 -202 -4 c-222 -4
-244 -9 -310 -67 -20 -17 -45 -52 -57 -76 -21 -45 -21 -52 -19 -639 l3 -593
30 -49 c19 -30 49 -60 79 -79 l49 -30 897 0 897 0 49 30 c30 19 60 49 79 79
l30 49 3 593 c2 587 2 594 -19 639 -12 24 -37 59 -57 76 -66 58 -88 63 -309
67 l-203 4 0 104 c0 139 -26 192 -117 238 -47 24 -663 23 -708 -1z m648 -124
c36 -16 47 -50 47 -139 l0 -80 -340 0 -340 0 0 80 c0 87 11 123 44 138 30 15
557 15 589 1z m584 -379 c40 -24 55 -72 51 -160 l-3 -65 -420 -225 -420 -225
-85 0 -85 0 -420 226 -420 225 -3 65 c-4 87 11 135 51 159 31 19 57 20 877 20
820 0 846 -1 877 -20z m-1418 -585 c210 -112 405 -211 433 -220 66 -19 150
-19 216 0 29 9 224 108 435 220 l382 205 3 -386 c2 -417 2 -418 -51 -458 -28
-21 -35 -21 -840 -24 -447 -2 -831 0 -855 3 -27 4 -55 17 -75 35 l-32 28 -3
401 c-1 221 -1 401 1 401 2 0 176 -92 386 -205z"/>
<path d="M632 3670 c-29 -12 -44 -52 -32 -85 10 -27 201 -145 235 -145 36 0
65 28 65 63 0 18 -4 37 -8 44 -9 15 -212 133 -227 132 -5 0 -20 -4 -33 -9z"/>
<path d="M4340 3620 c-57 -34 -108 -66 -112 -73 -16 -25 -8 -76 14 -91 36 -25
57 -19 166 45 109 64 130 88 112 134 -8 22 -44 45 -68 45 -4 0 -54 -27 -112
-60z"/>
<path d="M320 2560 c-25 -25 -26 -61 -1 -91 18 -23 25 -24 151 -24 126 0 133
1 151 24 24 30 24 52 -2 85 -20 26 -22 26 -150 26 -116 0 -131 -2 -149 -20z"/>
<path d="M4501 2554 c-26 -33 -26 -55 -2 -85 18 -23 25 -24 151 -24 126 0 133
1 151 24 25 30 24 62 -1 89 -19 20 -30 22 -150 22 -127 0 -129 0 -149 -26z"/>
<path d="M4164 1915 c-29 -8 -249 -129 -530 -291 -571 -330 -560 -324 -615
-324 l-44 0 -2 49 c-3 103 -76 206 -178 253 -49 23 -59 23 -475 29 -386 5
-434 7 -519 27 -146 33 -313 46 -503 38 l-168 -7 -30 34 c-55 63 -74 67 -302
67 -195 0 -207 -1 -249 -23 -29 -16 -54 -40 -74 -72 l-30 -48 -3 -533 c-2
-346 1 -554 7 -591 13 -66 40 -110 89 -144 34 -23 42 -24 248 -27 197 -3 216
-2 252 17 47 24 86 68 103 116 16 44 1 44 380 5 514 -51 785 -50 1085 5 180
34 331 85 498 170 77 39 400 221 716 404 473 273 583 340 622 382 102 108 104
265 3 377 -73 81 -182 115 -281 87z m136 -144 c51 -27 80 -74 80 -131 0 -90 9
-83 -630 -453 -757 -437 -830 -474 -1050 -531 -189 -50 -301 -61 -610 -60
-237 0 -326 4 -530 26 -135 15 -282 30 -328 34 l-82 7 0 442 0 442 52 7 c162
19 482 -2 623 -41 50 -13 133 -17 487 -22 410 -6 428 -7 454 -27 68 -50 88
-115 59 -190 -12 -32 -29 -53 -58 -72 l-40 -27 -415 -5 c-395 -5 -414 -6 -428
-24 -20 -28 -17 -63 6 -86 19 -19 33 -20 433 -20 470 0 472 0 558 77 50 46 51
46 117 45 42 -1 86 5 117 16 28 9 274 147 548 305 274 159 508 292 520 297 36
14 80 11 117 -9z m-3309 -130 l24 -19 0 -551 c0 -515 -1 -551 -18 -568 -16
-16 -38 -18 -198 -18 -178 0 -181 0 -200 24 -18 22 -19 46 -19 563 l0 539 25
24 c24 25 27 25 193 25 152 0 172 -2 193 -19z"/>
</g>
</svg>
