<?xml version="1.0" standalone="no"?>
<!DOCTYPE svg PUBLIC "-//W3C//DTD SVG 20010904//EN"
 "http://www.w3.org/TR/2001/REC-SVG-20010904/DTD/svg10.dtd">
<svg version="1.0" xmlns="http://www.w3.org/2000/svg"
 width="512.000000pt" height="512.000000pt" viewBox="0 0 512.000000 512.000000"
 preserveAspectRatio="xMidYMid meet">

<g transform="translate(0.000000,512.000000) scale(0.100000,-0.100000)"
fill="#000000" stroke="none">
<path d="M2530 5111 c-14 -4 -54 -23 -89 -41 l-65 -34 -76 27 c-91 32 -105 33
-148 7 -67 -41 -91 -164 -57 -295 18 -69 95 -234 162 -348 37 -64 43 -81 32
-88 -22 -14 -29 -11 -74 30 -97 89 -202 121 -395 120 -161 -1 -213 10 -315 62
-90 46 -107 47 -140 14 -53 -53 -22 -104 98 -160 113 -54 177 -66 359 -68 151
-2 167 -4 213 -27 47 -23 145 -104 145 -120 0 -4 -37 -10 -82 -13 -243 -17
-446 -101 -571 -236 -71 -77 -93 -123 -77 -161 13 -32 58 -55 89 -45 11 3 43
35 70 70 78 98 174 156 326 195 44 11 117 23 164 26 l86 5 -26 -23 c-14 -13
-77 -66 -139 -118 -438 -369 -762 -842 -885 -1294 -42 -154 -56 -252 -62 -428
l-6 -167 -71 5 c-126 9 -136 12 -136 40 0 97 -74 201 -159 224 -28 7 -116 10
-255 8 -211 -3 -211 -3 -259 -31 -26 -15 -60 -47 -75 -69 l-27 -42 -3 -925
c-2 -649 0 -937 8 -964 14 -49 65 -106 115 -128 35 -16 69 -19 266 -19 217 0
228 1 270 23 55 29 105 101 115 163 5 36 10 45 23 41 9 -2 193 -70 409 -151
283 -105 418 -151 482 -162 76 -13 191 -14 752 -12 650 4 665 4 743 26 44 12
116 40 160 61 44 21 323 192 620 381 297 188 612 388 700 443 181 114 226 151
263 222 23 43 27 62 27 140 0 78 -4 97 -27 140 -31 60 -88 119 -143 148 -32
18 -57 22 -130 22 -79 0 -100 -4 -170 -34 -44 -18 -86 -35 -92 -38 -8 -3 -3
17 12 50 36 82 72 213 91 334 22 142 15 412 -15 558 -71 345 -240 688 -493
998 -99 121 -139 157 -175 157 -41 0 -73 -30 -73 -69 0 -22 18 -50 71 -112
271 -314 447 -647 519 -985 30 -141 38 -404 16 -539 -27 -164 -115 -393 -184
-482 -10 -13 -195 -99 -474 -222 -252 -111 -460 -201 -463 -201 -3 0 -5 26 -6
58 -2 222 -161 419 -373 461 -28 6 -244 33 -481 60 -529 61 -531 62 -794 214
-130 74 -189 101 -316 143 -95 31 -100 34 -108 66 -15 53 0 321 23 433 106
505 431 987 955 1415 71 58 76 60 97 46 95 -60 492 -96 738 -66 110 14 227 45
275 75 l39 23 99 -82 c152 -124 169 -136 193 -136 32 0 63 30 70 68 6 31 2 37
-51 86 -32 30 -97 85 -146 122 l-88 69 -1 65 c-1 71 -20 125 -63 176 l-27 32
54 86 c105 167 177 336 191 448 12 96 -29 191 -94 218 -33 13 -61 8 -152 -26
l-46 -18 -79 39 c-69 34 -88 39 -149 39 -61 1 -80 -4 -144 -37 -41 -20 -81
-37 -90 -37 -8 0 -48 17 -89 37 -78 38 -159 51 -212 34z m163 -178 c60 -31 83
-37 138 -37 58 -1 75 4 138 37 40 20 83 37 97 37 13 0 56 -17 95 -37 59 -31
80 -37 132 -36 35 0 79 7 101 17 22 9 41 14 44 11 12 -12 -20 -132 -58 -218
-35 -79 -134 -255 -174 -309 -9 -12 -55 -25 -157 -44 -129 -24 -159 -26 -284
-20 -149 6 -281 28 -302 48 -28 29 -165 278 -194 352 -30 79 -49 161 -42 183
3 8 15 7 41 -4 20 -9 64 -16 97 -17 51 -1 72 5 135 36 41 21 85 38 98 38 12 0
55 -17 95 -37z m-183 -723 c186 -39 430 -37 617 6 35 8 75 11 89 8 54 -14 83
-115 48 -169 -20 -30 -74 -48 -221 -71 -205 -32 -596 -4 -677 49 -55 36 -54
133 1 177 31 24 26 24 143 0z m-1825 -2105 l25 -24 0 -227 c0 -220 1 -228 22
-251 26 -28 67 -30 99 -4 23 18 24 27 27 145 l4 126 36 -5 c20 -2 72 -7 115
-10 174 -13 337 -70 581 -204 189 -103 289 -145 394 -166 43 -8 259 -35 482
-60 223 -25 428 -52 455 -60 78 -23 144 -79 185 -159 32 -63 35 -75 35 -160
l0 -91 -408 -5 c-390 -5 -409 -6 -423 -24 -20 -28 -17 -69 5 -97 l19 -24 440
-3 c412 -2 443 -1 489 16 26 11 201 87 388 169 1018 449 1008 445 1065 450 46
4 60 1 89 -19 50 -34 73 -71 78 -125 6 -62 -14 -112 -58 -146 -76 -56 -1434
-910 -1484 -932 -138 -62 -116 -60 -870 -60 -686 0 -690 0 -755 22 -36 12
-244 89 -462 170 l-398 148 0 408 c0 452 -1 459 -61 472 -23 5 -38 2 -58 -13
l-26 -19 -5 -529 c-3 -291 -6 -530 -8 -531 -1 -1 -9 -9 -18 -17 -13 -14 -47
-16 -219 -16 -199 0 -204 0 -219 22 -14 20 -16 124 -16 920 l0 897 22 21 c20
19 34 20 215 20 193 0 194 0 218 -25z"/>
<path d="M2793 3560 c-32 -13 -43 -41 -43 -114 l0 -66 -46 -11 c-25 -7 -72
-29 -104 -51 -107 -71 -167 -197 -158 -332 9 -132 76 -217 230 -293 l77 -38 1
-298 0 -298 -47 6 c-27 3 -84 24 -128 46 -44 21 -92 39 -108 39 -62 0 -90 -80
-42 -124 43 -40 154 -88 241 -104 l84 -16 0 -71 c0 -62 3 -74 23 -93 31 -29
72 -28 102 3 22 21 25 33 25 98 l0 73 50 13 c60 15 153 74 197 124 81 92 117
196 111 320 -8 176 -106 293 -305 363 l-53 18 0 238 c0 196 2 238 14 238 21 0
85 -29 125 -56 45 -31 76 -30 106 1 30 29 32 64 5 98 -26 33 -147 94 -205 103
l-45 6 0 59 c0 69 -13 103 -47 118 -28 13 -30 13 -60 1z m-43 -540 l0 -201
-22 12 c-103 54 -138 101 -138 184 0 78 38 145 105 186 55 35 55 36 55 -181z
m225 -456 c93 -44 135 -111 135 -218 0 -111 -71 -219 -172 -261 l-38 -15 0
260 c0 177 3 260 11 260 5 0 35 -11 64 -26z"/>
</g>
</svg>
